<mxfile host="Electron" modified="2024-06-13T16:40:17.914Z" agent="Mozilla/5.0 (Windows NT 10.0; Win64; x64) AppleWebKit/537.36 (KHTML, like Gecko) draw.io/24.5.1 Chrome/124.0.6367.207 Electron/30.0.6 Safari/537.36" etag="h3Z5YA3KyF9vXtZenrpi" version="24.5.1" type="device">
  <diagram id="C5RBs43oDa-KdzZeNtuy" name="Page-1">
    <mxGraphModel dx="926" dy="560" grid="1" gridSize="10" guides="1" tooltips="1" connect="1" arrows="1" fold="1" page="1" pageScale="1" pageWidth="827" pageHeight="1169" math="0" shadow="0">
      <root>
        <mxCell id="WIyWlLk6GJQsqaUBKTNV-0" />
        <mxCell id="WIyWlLk6GJQsqaUBKTNV-1" parent="WIyWlLk6GJQsqaUBKTNV-0" />
        <mxCell id="zhYJF1PlnvmegCfIBvpR-2" value="" style="edgeStyle=orthogonalEdgeStyle;rounded=0;orthogonalLoop=1;jettySize=auto;html=1;entryX=0.488;entryY=-0.071;entryDx=0;entryDy=0;entryPerimeter=0;" parent="WIyWlLk6GJQsqaUBKTNV-1" source="zhYJF1PlnvmegCfIBvpR-1" target="zhYJF1PlnvmegCfIBvpR-3" edge="1">
          <mxGeometry relative="1" as="geometry">
            <mxPoint x="210" y="130" as="targetPoint" />
          </mxGeometry>
        </mxCell>
        <mxCell id="zhYJF1PlnvmegCfIBvpR-1" value="Inicio" style="ellipse;whiteSpace=wrap;html=1;aspect=fixed;" parent="WIyWlLk6GJQsqaUBKTNV-1" vertex="1">
          <mxGeometry x="170" y="30" width="80" height="80" as="geometry" />
        </mxCell>
        <mxCell id="EfLMHXOZhdcmqJPLgoV5-1" value="" style="edgeStyle=orthogonalEdgeStyle;rounded=0;orthogonalLoop=1;jettySize=auto;html=1;" edge="1" parent="WIyWlLk6GJQsqaUBKTNV-1" source="zhYJF1PlnvmegCfIBvpR-3" target="EfLMHXOZhdcmqJPLgoV5-0">
          <mxGeometry relative="1" as="geometry" />
        </mxCell>
        <mxCell id="zhYJF1PlnvmegCfIBvpR-3" value="Mostrar mensaje &quot;Por favor, ingresar las medidas de la pieza del mueble en centÃ­metros: &quot;" style="shape=parallelogram;perimeter=parallelogramPerimeter;whiteSpace=wrap;html=1;fixedSize=1;rounded=1;fillColor=#dae8fc;strokeColor=#6c8ebf;" parent="WIyWlLk6GJQsqaUBKTNV-1" vertex="1">
          <mxGeometry x="127" y="145" width="170" height="85" as="geometry" />
        </mxCell>
        <mxCell id="zhYJF1PlnvmegCfIBvpR-28" value="" style="edgeStyle=orthogonalEdgeStyle;rounded=0;orthogonalLoop=1;jettySize=auto;html=1;" parent="WIyWlLk6GJQsqaUBKTNV-1" source="zhYJF1PlnvmegCfIBvpR-20" target="zhYJF1PlnvmegCfIBvpR-27" edge="1">
          <mxGeometry relative="1" as="geometry" />
        </mxCell>
        <mxCell id="zhYJF1PlnvmegCfIBvpR-20" value="Mostrar mensaje &quot;Las medidas en pulgadas de la pieza ingresada son&quot;, media_en_pulgadas, &quot;pulgadas&quot;" style="shape=parallelogram;perimeter=parallelogramPerimeter;whiteSpace=wrap;html=1;fixedSize=1;rounded=1;fillColor=#dae8fc;strokeColor=#6c8ebf;" parent="WIyWlLk6GJQsqaUBKTNV-1" vertex="1">
          <mxGeometry x="122" y="400" width="180" height="80" as="geometry" />
        </mxCell>
        <mxCell id="zhYJF1PlnvmegCfIBvpR-27" value="Fin" style="ellipse;whiteSpace=wrap;html=1;rounded=1;" parent="WIyWlLk6GJQsqaUBKTNV-1" vertex="1">
          <mxGeometry x="172" y="510" width="80" height="80" as="geometry" />
        </mxCell>
        <mxCell id="EfLMHXOZhdcmqJPLgoV5-2" value="" style="edgeStyle=orthogonalEdgeStyle;rounded=0;orthogonalLoop=1;jettySize=auto;html=1;" edge="1" parent="WIyWlLk6GJQsqaUBKTNV-1" source="EfLMHXOZhdcmqJPLgoV5-0" target="zhYJF1PlnvmegCfIBvpR-20">
          <mxGeometry relative="1" as="geometry" />
        </mxCell>
        <mxCell id="EfLMHXOZhdcmqJPLgoV5-0" value="Convertir media_en_pulgadas = medida_en_centimetros / 2.54" style="whiteSpace=wrap;html=1;fillColor=#1ba1e2;strokeColor=#006EAF;rounded=1;fontColor=#ffffff;" vertex="1" parent="WIyWlLk6GJQsqaUBKTNV-1">
          <mxGeometry x="134" y="263" width="156" height="91" as="geometry" />
        </mxCell>
      </root>
    </mxGraphModel>
  </diagram>
</mxfile>
